<?xml version="1.0" standalone="no"?>
<!DOCTYPE svg PUBLIC "-//W3C//DTD SVG 20010904//EN"
 "http://www.w3.org/TR/2001/REC-SVG-20010904/DTD/svg10.dtd">
<svg version="1.0" xmlns="http://www.w3.org/2000/svg"
 width="500.000000pt" height="500.000000pt" viewBox="0 0 500.000000 500.000000"
 preserveAspectRatio="xMidYMid meet">

<g transform="translate(0.000000,500.000000) scale(0.100000,-0.100000)"
fill="#000000" stroke="none">
<path d="M3667 3052 c-13 -15 -13 -19 0 -31 13 -11 17 -11 28 0 11 12 11 17 1
31 -12 17 -14 17 -29 0z"/>
<path d="M3461 3020 c-2 -63 -70 -140 -123 -140 -10 0 -18 -4 -18 -10 0 -5 11
-10 25 -10 51 0 104 -68 118 -150 3 -20 5 -18 6 8 3 73 61 142 119 142 12 0
22 5 22 10 0 6 -11 10 -25 10 -16 0 -41 15 -66 38 -32 29 -42 47 -48 87 -8 43
-9 45 -10 15z"/>
<path d="M2319 2800 c-22 -13 -54 -90 -84 -201 -28 -104 -38 -119 -108 -154
-62 -31 -87 -33 -80 -6 3 12 -8 33 -33 60 l-37 42 22 22 c24 27 27 37 8 37
-17 0 -123 -108 -114 -116 3 -3 18 3 32 15 l27 20 34 -27 c36 -29 44 -56 18
-66 -27 -11 -61 -6 -74 9 -7 8 -19 15 -26 15 -41 0 17 -56 68 -65 41 -8 133
15 186 46 18 10 36 19 38 19 3 0 3 -18 -1 -40 -5 -29 -3 -40 6 -40 6 0 27 18
46 40 41 48 64 50 110 10 55 -48 127 -39 225 28 24 16 62 32 85 36 42 6 43 6
33 -20 -13 -33 2 -62 36 -70 44 -11 141 3 198 29 39 18 53 21 49 11 -7 -19 15
-44 37 -44 10 0 33 12 51 27 25 21 34 24 37 13 19 -56 88 -75 171 -45 73 25
200 125 161 125 -6 0 -37 -20 -71 -45 -34 -25 -86 -52 -117 -61 -49 -15 -59
-15 -82 -2 -22 12 -25 21 -25 66 1 29 -3 52 -8 52 -5 0 -29 -23 -54 -50 -63
-70 -92 -67 -57 6 22 45 11 54 -24 21 -63 -60 -224 -106 -266 -74 -17 12 -17
18 -6 51 15 46 4 61 -34 46 -15 -5 -36 -10 -46 -10 -16 0 -17 4 -7 35 8 26 7
39 -1 47 -29 29 -72 -36 -53 -79 10 -21 6 -26 -36 -53 -94 -60 -137 -62 -191
-10 -37 35 -55 37 -99 10 -31 -19 -33 -19 -33 -1 0 10 19 47 42 82 85 131 117
226 86 257 -14 14 -18 14 -39 2z m-18 -157 c-23 -47 -44 -83 -47 -80 -9 8 16
87 49 157 28 59 31 63 35 36 2 -18 -10 -57 -37 -113z"/>
<path d="M3772 2760 c-7 -12 -23 -25 -35 -30 -16 -6 -17 -9 -5 -9 9 -1 26 -13
37 -27 l21 -27 21 27 c11 14 28 26 37 27 12 0 11 3 -5 9 -12 5 -28 18 -35 30
-7 11 -15 20 -18 20 -3 0 -11 -9 -18 -20z"/>
</g>
</svg>
